<svg width="64" height="64" viewBox="0 0 64 64" fill="none" xmlns="http://www.w3.org/2000/svg">
<path d="M23.929 2.55511C22.7805 2.76057 21.8058 3.23471 21.0577 3.94593C20.4782 4.49384 20.2464 4.96272 20.0989 5.87413C19.9672 6.70652 19.9672 6.70652 18.7555 7.59686C17.2119 8.73481 16.1477 10.0993 15.8 11.4058C15.6525 11.9537 15.6419 12.881 15.7736 13.3814C16.1319 14.7354 16.901 15.3834 18.7028 15.8575C20.062 16.2158 20.5994 16.5424 20.8944 17.1904C21.0261 17.4802 21.0419 17.575 21.0419 18.0175C21.0367 18.4443 20.9945 18.6866 20.7364 19.7034C20.3781 21.11 20.3202 21.6948 20.4571 22.601C20.5941 23.5229 20.6047 23.7231 20.5467 24.1024C20.4466 24.7136 20.2359 25.2667 19.6406 26.4363C18.9978 27.7112 18.961 27.8482 19.2244 28.1432C19.5299 28.4856 19.9935 28.3171 20.3729 27.7217C20.8733 26.9368 21.0209 26.7313 21.121 26.6365C21.2316 26.5364 21.2316 26.5364 21.2369 26.6892C21.2421 26.7735 21.2421 27.1949 21.2369 27.6322C21.221 29.0019 21.3738 29.5815 22.1799 31.2146C22.9543 32.7898 23.0597 33.1797 23.007 34.3756C22.9649 35.2765 22.849 35.798 22.3116 37.5366C21.8638 38.9695 21.7163 39.6913 21.5477 41.198C21.4107 42.4255 21.2737 43.1104 21.0472 43.6636C20.6521 44.633 19.7512 45.7235 18.6659 46.5348C18.3709 46.7561 18.0706 47.0195 17.9969 47.1143C17.6333 47.5937 17.8546 48.0995 18.4289 48.0995C18.7133 48.0995 19.1243 47.873 19.7933 47.3514C20.6837 46.656 21.2579 45.9975 22.064 44.7699C22.2273 44.5171 22.3853 44.3116 22.4064 44.3116C22.4644 44.3063 22.4433 44.4591 22.2062 45.7024C21.985 46.8931 22.006 48.0152 22.2852 49.7011C22.6382 51.8347 22.6856 53.3256 22.4486 54.8956C22.3853 55.3065 22.3379 55.886 22.3379 56.2654C22.3327 56.7237 22.3063 56.9871 22.2536 57.1346C22.0429 57.6773 22.0113 57.8406 22.0745 58.0302C22.1535 58.2726 22.3063 58.3727 22.5908 58.3727C22.9859 58.3727 23.3389 58.0935 23.5549 57.6088C23.6603 57.3822 23.6813 57.2189 23.713 56.3971C23.734 55.8334 23.7972 55.159 23.871 54.7375C23.9606 54.1791 23.9869 53.8103 23.9922 52.999C23.9922 51.8611 23.929 51.2341 23.6234 49.4693C23.2388 47.2776 23.3231 46.0817 23.9658 44.4644C24.6191 42.8365 25.2882 41.9672 27.2849 40.1444C28.2121 39.2962 28.9075 38.3953 29.408 37.3785C29.8452 36.4987 30.0138 35.8086 30.0612 34.7233C30.077 34.3282 30.0981 33.9541 30.1139 33.8909C30.1455 33.7329 30.3615 33.6275 30.783 33.559C32.0052 33.3641 32.7955 32.8847 33.8491 31.6993C34.0493 31.478 34.2074 31.3463 34.2759 31.3463C34.3391 31.3463 34.5709 31.478 34.7922 31.6414C35.477 32.1418 36.1725 32.3578 37.0891 32.3578C38.0849 32.3631 38.5959 32.2314 39.4125 31.7625C39.6653 31.6203 39.9077 31.5044 39.9604 31.5044C40.1448 31.5044 40.0025 31.9996 39.4862 33.2166C38.3588 35.8718 38.1586 36.5567 38.1059 37.8843C38.0585 39.1276 38.206 39.9758 38.7487 41.5668C39.5863 44.0376 39.8919 45.8025 39.776 47.4989C39.6759 48.8897 39.4441 49.6484 38.5274 51.5502C37.4843 53.7102 37.2735 54.2687 37.1418 55.1748C36.9785 56.2917 37.4369 57.2347 38.401 57.7615C38.5537 57.8406 39.0384 57.9986 39.4915 58.1145C39.9393 58.2252 40.4556 58.3885 40.6347 58.4728C40.8138 58.5623 41.2827 58.8679 41.6726 59.1629C42.5418 59.8056 43.1635 60.127 43.8062 60.2693C44.2013 60.3535 44.4911 60.3746 45.5237 60.3746C46.8882 60.3746 47.2675 60.422 48.2052 60.6907C48.8164 60.8646 49.1851 60.8909 49.417 60.7697C49.6119 60.6696 49.6804 60.5432 49.6804 60.2851C49.6804 59.774 49.2273 59.4948 47.847 59.1366C47.12 58.9469 46.63 58.9048 45.8082 58.9627C44.2277 59.0734 43.4796 58.8574 42.3785 57.9881C41.3775 57.1978 40.9455 56.9766 39.8813 56.7079C39.4546 56.5973 39.0911 56.4761 38.9699 56.3918C38.5801 56.1336 38.4642 55.5805 38.6644 54.8956C38.8119 54.3793 38.9963 53.9368 39.6443 52.5512C40.8665 49.9487 41.1721 48.758 41.1668 46.6244C41.1615 44.849 40.9719 43.8006 40.2238 41.5194C39.718 39.9653 39.5969 39.5069 39.5126 38.7641C39.3914 37.7157 39.6285 36.5777 40.3344 34.8497C41.0878 33.0164 41.5672 31.536 41.8306 30.24C41.957 29.6131 41.9412 29.3813 41.7516 28.9598C41.6357 28.7016 41.6251 28.6279 41.6304 27.8166C41.6357 26.8736 41.583 26.5311 41.3249 25.8146C40.9982 24.9032 40.5451 24.1762 40.1922 23.9918C39.8919 23.839 39.5652 23.9338 39.4335 24.2183C39.3176 24.4607 39.365 24.703 39.6285 25.2456C40.2607 26.5575 40.4292 27.4109 40.2238 28.2802C40.013 29.1653 39.4177 30.0661 38.7223 30.535C38.2376 30.8669 37.9321 30.9459 37.1155 30.9459C36.3832 30.9512 36.3727 30.9512 36.0197 30.7774C35.5982 30.5666 35.4244 30.3612 35.2136 29.8027C35.0187 29.2917 34.8765 29.1073 34.5867 28.9967C34.0915 28.8123 33.7069 29.081 33.3803 29.8501C32.9693 30.809 32.2792 31.6361 31.5996 31.9733C31.1307 32.2103 30.5828 32.3157 30.0086 32.2788C28.565 32.1893 27.4376 31.3779 26.4261 29.7026C26.11 29.1811 25.8677 28.9756 25.5674 28.9756C25.3303 28.9756 25.2302 29.0441 25.0985 29.3075C24.8509 29.7816 25.3935 30.9881 26.2786 31.9311C26.8423 32.5317 27.2374 32.8267 27.9223 33.1481C28.2279 33.2903 28.5282 33.4378 28.5967 33.4695C28.8443 33.5906 28.8601 33.7065 28.7705 34.697C28.6599 35.8033 28.3859 36.5356 27.6747 37.6156C27.327 38.1372 27.0741 38.4216 25.8835 39.6175C25.1196 40.3867 24.3451 41.2138 24.166 41.4615C23.8815 41.8408 23.1861 42.9208 22.9912 43.279C22.7489 43.7268 22.5855 43.9902 22.5434 43.9902C22.4854 43.9902 22.4854 43.9797 22.5487 43.5951C22.5803 43.4213 22.6277 43.1104 22.654 42.9102C22.6751 42.7048 22.7594 42.0568 22.8384 41.4615C23.0491 39.7861 23.2019 39.1065 23.7867 37.1941C24.3662 35.2976 24.519 33.8277 24.2661 32.6371C24.1291 31.9891 23.9764 31.6045 23.4443 30.5297C22.6909 29.0019 22.633 28.8176 22.6277 27.8429C22.6277 27.158 22.6435 27 22.7489 26.6576C23.1387 25.4248 23.8183 24.5608 25.2829 23.4492C26.9371 22.1848 27.4429 21.521 27.4482 20.599C27.4482 20.0722 27.406 19.9299 26.9161 18.8974C26.4893 18.0017 26.4261 17.7436 26.5947 17.654C26.6421 17.6277 26.9266 17.6172 27.2216 17.633C27.8854 17.6646 28.3859 17.5855 28.997 17.3537C29.5555 17.1377 29.7346 17.1272 29.8505 17.3011C29.8927 17.3748 30.0454 17.8279 30.1877 18.3178C30.509 19.4347 30.6566 19.8351 30.8778 20.2092C31.3204 20.9467 32.0948 21.3102 32.943 21.1785C33.7069 21.0626 34.376 20.7676 36.104 19.7719C38.4168 18.4443 39.7128 17.9807 40.9613 18.0281C41.3881 18.0439 41.5461 18.0755 41.7885 18.1861C42.8579 18.6814 43.4954 20.4989 43.6745 23.5756C43.743 24.761 43.7009 26.1255 43.5428 28.1854C43.3268 30.9091 43.2952 31.5676 43.2899 33.7434C43.2794 36.0562 43.311 36.5093 43.5955 38.5007C43.8589 40.3498 43.901 40.8556 43.901 41.9883C43.8958 43.0261 43.8378 43.6531 43.4901 46.2293C43.2267 48.2154 43.2004 49.4166 43.3848 50.8864C43.5323 52.0138 43.6218 52.3089 43.9116 52.5775C44.017 52.6776 44.1065 52.7093 44.2909 52.7093C44.4911 52.7093 44.549 52.6829 44.6755 52.5407C44.902 52.2878 44.9178 52.0296 44.7756 50.9813C44.5807 49.5483 44.6017 48.2734 44.8493 46.4136C45.1918 43.8058 45.2234 43.4213 45.2234 42.041C45.2234 40.9135 45.2023 40.5711 45.0548 39.3541C44.7809 37.1362 44.7229 36.4092 44.686 35.0341C44.6228 32.8425 44.7018 30.5297 44.9442 27.079C45.1707 23.8917 44.9969 21.5895 44.3857 19.7245C43.4954 17.0113 41.6831 16.1104 38.854 16.9797C37.7108 17.3327 36.889 17.7225 35.0556 18.7867C33.5752 19.6402 33.1432 19.8298 32.6532 19.8298C32.0527 19.8351 31.8841 19.6244 31.3941 18.2494C31.2203 17.7594 30.9937 17.1377 30.8884 16.8638C30.646 16.2316 30.6513 16.063 30.9147 15.4572C31.3414 14.4878 31.5048 13.7134 31.5048 12.6439C31.5048 11.3795 31.3046 10.2257 30.9094 9.20369C30.409 7.91823 30.43 7.85501 31.1939 8.26067C31.4837 8.41345 31.9684 8.63472 32.2792 8.75062C32.9588 9.00877 33.0852 9.07198 33.3223 9.28271C33.5699 9.49871 33.6753 9.70945 33.9914 10.6367C34.1336 11.0581 34.3391 11.5692 34.4445 11.7694C34.6973 12.2435 35.103 12.6597 35.4929 12.8441C35.7773 12.9758 35.8458 12.9863 36.457 12.9811C37.0733 12.9758 37.1576 12.9653 37.7213 12.7756C38.7065 12.4542 39.2755 12.3278 39.776 12.3278C40.64 12.3278 41.3775 12.6228 42.4839 13.4025C42.8737 13.6765 43.232 13.7239 43.4322 13.5237C43.5428 13.4131 43.5691 13.334 43.5691 13.1338C43.5639 12.9969 43.5323 12.823 43.4954 12.7598C43.2794 12.3647 42.5892 11.8694 41.662 11.4322C40.9666 11.1108 40.6452 11.0423 39.855 11.0476C39.1122 11.0529 38.8488 11.1055 37.6423 11.4638C37.0891 11.6324 36.8731 11.6693 36.5254 11.6693C36.1725 11.6693 36.0671 11.6482 35.9459 11.5586C35.7141 11.39 35.4665 10.9317 35.2927 10.3522C34.9291 9.15628 34.75 8.7875 34.318 8.36076C34.0125 8.06047 33.6331 7.86028 32.8692 7.59686C32.5321 7.48096 32.1317 7.32291 31.9789 7.24389C31.4363 6.96994 31.0464 6.50632 30.5828 5.58964C29.9453 4.31472 29.5555 3.93013 28.7494 3.79316C28.054 3.67199 27.622 3.86164 26.7633 4.66242C26.0731 5.31042 25.873 5.42106 25.0827 5.57911C24.7877 5.63706 24.461 5.73189 24.3451 5.78984C24.0396 5.94789 23.7446 6.31667 23.576 6.75394C23.0017 8.24486 22.1641 9.47237 21.3106 10.0888C21.1104 10.231 20.847 10.4523 20.7206 10.5682C20.3992 10.879 20.4045 11.0529 20.789 11.8747C21.2579 12.881 21.8374 13.8134 22.4644 14.5932C22.7857 14.9935 23.8078 16.0367 24.4452 16.6214C24.7877 16.9323 24.793 16.9428 24.9668 17.5171C25.0669 17.8332 25.3409 18.5602 25.5832 19.1344C25.8255 19.7034 26.0415 20.2776 26.0573 20.4094C26.1258 20.9046 25.815 21.2944 24.6296 22.2058C23.5128 23.0593 23.223 23.3438 22.2852 24.4817C21.8743 24.9822 21.8427 24.9506 21.8849 24.1498C21.9112 23.6283 21.8954 23.3016 21.8111 22.6115C21.6741 21.5473 21.7005 21.2839 22.0482 19.9299C22.4802 18.2599 22.4854 17.5013 22.0692 16.6425C21.9059 16.3054 21.769 16.121 21.4529 15.8049C20.8628 15.2201 20.4361 15.0146 18.8767 14.5721C17.7018 14.2349 17.2751 13.9135 17.0591 13.2076C16.8484 12.5069 16.9959 11.6587 17.4753 10.8C17.8072 10.2152 18.6712 9.34067 19.6827 8.57676C20.9576 7.60213 21.2158 7.24916 21.3633 6.25345C21.4634 5.61072 21.6162 5.25774 21.9428 4.90477C22.575 4.23042 23.5707 3.86164 25.1407 3.7194C25.8677 3.65091 25.9941 3.62984 26.2101 3.49813C26.3471 3.41911 26.4683 3.32428 26.4841 3.28213C26.5262 3.1715 26.2259 2.78691 26.0152 2.67628C25.6253 2.47081 24.6876 2.41813 23.929 2.55511ZM25.9941 3.01345C26.3102 3.07667 26.4103 3.1715 26.2839 3.29267C26.2259 3.35062 26.1153 3.35589 25.736 3.31374C24.9194 3.22945 23.7972 3.38223 23.0228 3.68779C22.2536 3.99335 21.7215 4.3674 21.358 4.85735C21.0735 5.2472 20.9787 5.53169 20.9208 6.22184C20.847 7.09111 20.7785 7.18594 19.6511 8.02359C18.334 9.0035 17.6913 9.61462 17.1803 10.4049C16.2847 11.7852 16.2689 13.4131 17.1434 14.2823C17.4595 14.5932 17.981 14.825 18.9926 15.0936C20.5678 15.5151 21.279 15.9734 21.6794 16.8164C22.0429 17.575 22.0218 18.2019 21.5793 19.9247C21.2158 21.3313 21.1894 21.6316 21.3264 22.4956C21.5371 23.8074 21.5266 24.1235 21.2263 25.0507C20.9892 25.7988 19.9988 27.6796 19.6406 28.0642C19.5563 28.1537 19.5089 28.1695 19.4351 28.1274C19.3771 28.1011 19.335 28.0536 19.335 28.022C19.335 27.9904 19.5405 27.6111 19.7881 27.1738C21.0261 25.0138 21.2316 24.2289 20.9682 22.6484C20.7996 21.6527 20.8312 21.2892 21.2105 19.8351C21.5793 18.4127 21.632 17.791 21.4423 17.2326C21.1262 16.3001 20.5414 15.8892 18.9083 15.4572C18.3762 15.3149 17.8125 15.1305 17.5649 15.0146C15.9422 14.2349 15.6472 12.0486 16.9116 10.1309C17.449 9.31433 18.1812 8.62418 19.6827 7.52311C20.0304 7.27023 20.3518 6.99101 20.4097 6.89618C20.4782 6.78028 20.5204 6.55901 20.552 6.13755C20.6047 5.43159 20.7206 5.07862 21.0577 4.63081C21.6214 3.87745 22.6488 3.30847 23.9184 3.03452C24.3399 2.93969 25.5832 2.92915 25.9941 3.01345ZM29.0761 4.32525C29.4659 4.48857 29.6714 4.74672 30.1034 5.61599C30.92 7.25443 31.215 7.52311 32.727 8.0394C34.1073 8.50828 34.3654 8.77696 34.7448 10.1414C35.0925 11.39 35.5403 12.1118 36.0197 12.2014C36.3832 12.2698 36.9469 12.1855 37.6423 11.959C39.8181 11.2636 40.5662 11.3005 42.1678 12.2172C42.9475 12.6597 43.4374 13.1549 43.3426 13.4025C43.2899 13.5342 43.1161 13.5026 43.016 13.3446C42.8 13.0179 42.1256 12.5543 41.3354 12.1961C40.6979 11.9063 40.3608 11.8378 39.7233 11.8694C39.1385 11.8958 38.7592 11.9854 37.6845 12.3331C36.9153 12.5807 36.4359 12.6544 36.0829 12.5912C35.2979 12.4437 34.8975 11.9116 34.4339 10.4259C34.1389 9.46711 34.1178 9.41442 33.9334 9.15101C33.7332 8.86125 33.3487 8.63998 32.6374 8.39764C31.8472 8.13423 31.4837 7.96037 31.1044 7.67589C30.6091 7.30184 30.3457 6.91725 29.7715 5.75823C29.566 5.34203 29.3342 4.95745 29.2341 4.85735C29.0497 4.67823 28.6599 4.53072 28.3754 4.53072C28.1436 4.53072 28.0171 4.63081 27.3112 5.3473C26.6421 6.02691 26.405 6.17969 25.7729 6.34828C25.5885 6.39569 25.2829 6.44838 25.088 6.46418C24.893 6.47998 24.6981 6.51159 24.6507 6.53794C24.6033 6.56428 24.44 6.88564 24.2872 7.25443C23.734 8.61891 23.1914 9.48291 22.3959 10.2732C22.1483 10.5208 21.7953 10.8158 21.6162 10.9264L21.2948 11.1266L21.3738 11.3163C21.5688 11.7957 22.1114 12.7861 22.4433 13.2866C23.1967 14.414 24.029 15.2728 25.03 15.9418C25.9836 16.5793 26.7738 16.8585 27.6326 16.8585C28.4597 16.8585 29.0761 16.6004 29.624 16.0209C31.3572 14.1822 30.9779 9.92545 28.7863 6.56955C28.4333 6.03218 28.3859 5.88467 28.544 5.82145C28.8759 5.68974 30.193 8.17638 30.6882 9.87803C30.8989 10.6051 31.0359 11.4849 31.0675 12.3278C31.1149 13.5395 30.9516 14.4404 30.5301 15.3044C30.0402 16.3106 29.35 16.9059 28.3859 17.1535C27.8907 17.2853 26.9846 17.2326 26.3945 17.0429C24.8404 16.5424 23.3547 15.2833 22.1167 13.4078C21.6899 12.7598 21.0209 11.4849 21.0209 11.3163C21.0209 11.2583 20.984 11.2214 20.9208 11.2214C20.7416 11.2214 20.6521 11.1582 20.6521 11.0318C20.6521 10.937 20.689 10.9001 20.7996 10.8737C21.5003 10.721 22.3063 10.0045 23.0755 8.84018C23.4548 8.2712 23.5654 8.03413 24.1081 6.71179C24.303 6.23764 24.4031 6.16389 24.9299 6.10593C26.0047 5.98476 26.3418 5.81618 27.1373 4.9996C27.8538 4.26203 28.0593 4.14613 28.5176 4.18301C28.6862 4.19881 28.9338 4.26203 29.0761 4.32525ZM28.7863 5.24194C28.8601 5.31042 28.9233 5.38945 28.9233 5.41052C28.9233 5.43686 28.8021 5.51062 28.6546 5.57911C28.2173 5.78984 28.1067 6.01637 28.2437 6.43257C28.2806 6.53267 28.486 6.90672 28.702 7.27023C29.3658 8.36603 29.624 9.02457 29.9453 10.4312C30.2088 11.5639 30.2562 12.0064 30.2246 12.902C30.193 13.8082 30.0823 14.2981 29.761 14.9514C29.0708 16.3633 27.6536 16.7637 26.1048 15.9945C24.9141 15.3992 23.8605 14.5405 23.1334 13.5553C22.5803 12.8125 22.0166 11.801 21.9797 11.5007L21.9533 11.2636L22.5329 10.7052C23.4706 9.79374 23.9237 9.15628 24.4558 7.98145C24.6349 7.58106 24.8509 7.1912 24.9299 7.10691C25.0406 7.00154 25.1828 6.93832 25.4884 6.86984C26.4261 6.66438 26.8107 6.45364 27.5799 5.72662C27.8696 5.45794 28.1541 5.20506 28.2121 5.17345C28.3912 5.07335 28.6335 5.09969 28.7863 5.24194ZM30.5038 16.8585C30.5881 17.0745 30.7988 17.7173 30.9779 18.281C31.3678 19.4927 31.4837 19.7719 31.7208 20.0458C31.9526 20.304 32.158 20.3883 32.5848 20.3883C33.1906 20.3883 33.7438 20.1459 35.535 19.0975C37.2209 18.1124 38.2798 17.633 39.4546 17.3221C39.9762 17.1852 40.1658 17.1588 40.7506 17.1535C41.3249 17.1483 41.4934 17.1693 41.8148 17.2694C43.2109 17.7067 44.038 19.2187 44.4437 22.0794C44.4964 22.464 44.5332 23.2279 44.5543 24.2078C44.5754 25.4933 44.5596 26.057 44.4437 27.7639C44.2488 30.7036 44.2013 31.8363 44.2013 33.8646C44.2013 36.014 44.2435 36.6884 44.528 38.88C44.7018 40.2445 44.744 40.7555 44.765 41.7407C44.7967 43.1157 44.7598 43.5951 44.4648 45.8289C44.0907 48.6 44.0802 49.5272 44.3857 51.545C44.5227 52.4458 44.5174 52.5775 44.333 52.5775C44.1961 52.5775 44.1381 52.409 44.017 51.6977C43.6798 49.6905 43.6956 48.4261 44.096 45.5971C44.4648 42.9893 44.4964 41.609 44.2277 39.6175C43.8062 36.4618 43.7535 35.6821 43.801 33.1534C43.8378 31.046 43.8852 30.0819 44.0538 27.9219C44.2066 25.9727 44.2224 23.3912 44.0802 22.3112C43.822 20.3303 43.369 19.0027 42.6841 18.2283C42.447 17.9543 42.0519 17.7225 41.6515 17.6172C41.288 17.5223 40.3924 17.5223 39.8919 17.6277C38.7855 17.849 37.3262 18.4917 35.6931 19.4663C34.7131 20.0511 33.7227 20.5516 33.2696 20.6833C32.8113 20.8203 32.2265 20.8097 31.9157 20.657C31.6207 20.5147 31.3467 20.2302 31.1729 19.8773C30.9042 19.3557 30.0981 16.6689 30.1561 16.5108C30.2246 16.3317 30.3615 16.4687 30.5038 16.8585ZM25.5674 17.143C25.736 17.3959 26.9213 19.9721 27.0056 20.2618C27.1163 20.6517 27.0741 20.9256 26.8265 21.3313C26.542 21.8055 26.0573 22.2638 25.0248 23.0488C23.9922 23.8337 23.4179 24.3974 22.9912 25.0507C22.3801 25.9885 22.1167 26.8261 22.1114 27.8429C22.1114 28.8281 22.2115 29.1705 22.9701 30.6878C23.7709 32.2946 23.871 32.616 23.9026 33.6907C23.9448 34.9709 23.8394 35.5504 23.1545 37.7736C22.6804 39.3225 22.5645 39.8704 22.417 41.2981C22.2326 43.0999 22.0218 43.8691 21.4739 44.7963C20.8997 45.7656 20.1621 46.5506 19.0979 47.3198C18.3762 47.8466 18.2129 47.9309 18.097 47.8361C18.0548 47.7992 18.0179 47.7413 18.0179 47.7044C18.0179 47.6675 18.3551 47.3935 18.7713 47.0933C19.8671 46.2977 20.6099 45.518 21.1578 44.5908C21.6794 43.7057 21.8532 43.0367 22.0482 41.1506C22.1957 39.7334 22.2905 39.2962 22.8384 37.5102C23.439 35.5504 23.5233 35.1237 23.518 33.9541C23.5128 32.8109 23.4495 32.5949 22.6593 31.0039C22.3116 30.3085 21.9797 29.5867 21.927 29.3971C21.5477 28.1327 21.6741 26.7787 22.2852 25.5196C22.7963 24.4607 23.4443 23.7442 24.7982 22.7327C25.7412 22.0215 26.3629 21.4261 26.5473 21.0521C26.6474 20.8466 26.6632 20.7413 26.6421 20.5253C26.6158 20.2671 26.5473 20.088 25.8413 18.5444C25.4884 17.7647 25.2882 17.2536 25.2882 17.1167C25.2882 16.9744 25.4673 16.9902 25.5674 17.143ZM40.229 24.6029C40.5399 25.1034 40.935 25.9885 41.0667 26.4732C41.1826 26.9157 41.2248 27.8218 41.151 28.2644C40.9771 29.2917 40.5926 30.0135 39.7812 30.8248C38.933 31.673 38.3904 31.889 37.1155 31.8942C35.8827 31.8942 35.1926 31.5939 34.6605 30.809C34.4761 30.5455 34.4287 30.5034 34.2811 30.5034C34.1231 30.5034 34.0862 30.5455 33.7438 31.0618C32.8008 32.4948 31.7787 33.1059 30.2351 33.1744C29.6925 33.2008 29.5608 33.185 29.0761 33.0638C27.7537 32.7266 26.7106 31.9153 25.9309 30.6193C25.6095 30.0819 25.2776 29.3233 25.3198 29.2127C25.3409 29.1705 25.4093 29.1336 25.4778 29.1336C25.5832 29.1336 25.6464 29.2179 25.873 29.671C26.2681 30.456 26.6369 31.0039 27.1005 31.4675C27.9908 32.3631 28.9602 32.7898 30.135 32.7898C30.8251 32.7951 31.215 32.7108 31.7945 32.4316C32.7217 31.9891 33.3065 31.262 34.023 29.6499C34.1916 29.2864 34.3496 29.16 34.4813 29.297C34.5182 29.3391 34.613 29.5973 34.6973 29.8712C35.045 31.0197 35.5982 31.4306 36.8784 31.4886C37.6212 31.5255 38.2324 31.4201 38.717 31.183C39.1069 30.9881 39.797 30.3295 40.1131 29.8501C40.3502 29.4866 40.6242 28.865 40.7295 28.4488C40.8402 27.9957 40.8138 27.0316 40.6769 26.5258C40.561 26.0938 40.1237 25.1297 39.8023 24.6029C39.5969 24.2605 39.6021 24.113 39.8181 24.1393C39.9235 24.1498 40.013 24.2499 40.229 24.6029ZM41.6462 29.1811C41.6831 29.3022 41.1036 31.4728 40.8033 32.3473C40.6663 32.7319 40.3344 33.5748 40.0657 34.2176C39.2017 36.2933 39.0173 36.9834 39.0173 38.2478C39.0121 39.2804 39.1016 39.6913 39.7022 41.4931C40.503 43.9007 40.6927 44.9069 40.6927 46.7561C40.6927 48.8423 40.4556 49.7274 39.2017 52.3247C38.3009 54.1949 38.0322 54.9167 38.0216 55.5278C38.0111 56.023 38.1059 56.3602 38.3325 56.6289C38.5801 56.9186 38.9541 57.0819 39.7233 57.2347C40.777 57.4507 41.1721 57.6404 42.0888 58.3937C42.6999 58.8942 43.153 59.1682 43.7009 59.3578L44.1223 59.5054H45.7555C47.1727 59.5106 47.4255 59.5212 47.6784 59.6055C47.8365 59.6581 48.3053 59.8056 48.7163 59.9321C49.5065 60.1797 49.6382 60.2693 49.5012 60.4589C49.4328 60.5485 49.3801 60.5379 48.3844 60.2376L47.336 59.9268L45.7818 59.9215C43.9853 59.9163 43.8484 59.8952 43.016 59.479C42.663 59.3052 42.2837 59.0523 41.857 58.7098C41.0351 58.046 40.6242 57.8511 39.6232 57.6404C39.207 57.5508 38.7645 57.4296 38.6433 57.3717C38.2903 57.2031 37.9531 56.8712 37.7898 56.5393C37.6529 56.2601 37.6423 56.1916 37.6423 55.6068C37.6423 55.0536 37.6634 54.9219 37.7898 54.5321C37.9742 53.9895 38.4115 52.9937 38.8646 52.0771C39.5916 50.6335 39.9656 49.6536 40.1553 48.7212C40.2607 48.1943 40.2765 47.9731 40.2765 46.8088C40.2765 44.8753 40.1237 44.0798 39.286 41.5299C38.696 39.7493 38.6011 39.2962 38.6011 38.2741C38.6011 37.6577 38.6275 37.3627 38.717 36.9307C38.8593 36.2511 39.128 35.4187 39.4388 34.6759C40.1764 32.9215 40.3239 32.5528 40.5188 31.9891C40.6347 31.6519 40.8454 30.9301 40.9877 30.3928C41.2722 29.318 41.3354 29.1284 41.4197 29.0757C41.504 29.023 41.6093 29.0757 41.6462 29.1811ZM29.5555 33.6591C29.6503 33.8382 29.6767 34.6285 29.6082 35.1711C29.3869 36.9307 28.5018 38.4216 26.7106 40.0654C26.2944 40.4394 25.736 40.9873 25.462 41.2718C24.5611 42.2201 23.713 43.6583 23.3178 44.9069C23.0017 45.9079 22.9438 46.2767 22.9438 47.3619C22.949 48.2523 22.9649 48.4261 23.144 49.4166C23.6023 51.977 23.6497 53.3415 23.3284 55.1063C23.2388 55.6226 23.2283 55.8281 23.2599 56.4708C23.2915 57.2136 23.2915 57.2295 23.1545 57.5087C22.9912 57.8406 22.6171 58.1777 22.4328 58.1514C22.2326 58.1251 22.2642 57.9828 22.5381 57.6983C22.87 57.3506 22.9122 57.182 22.849 56.5024C22.7963 55.9545 22.8331 55.5436 23.007 54.6849C23.0755 54.3424 23.0966 53.942 23.0966 52.999C23.1018 51.6398 23.065 51.2236 22.7752 49.601C22.5592 48.3735 22.4907 47.0564 22.5961 46.2977C22.8015 44.8964 23.3336 43.5582 24.2398 42.1937C24.6296 41.6037 24.8088 41.4035 26.1574 40.0654C26.974 39.254 27.759 38.4375 27.896 38.2478C28.5387 37.3627 28.9654 36.4566 29.1709 35.5399C29.2183 35.3134 29.2552 34.8603 29.2657 34.4019C29.271 33.9805 29.2815 33.6222 29.2815 33.5959C29.3026 33.5169 29.5028 33.5643 29.5555 33.6591Z" fill="url(#paint0_radial_2001_2319)"/>
<path d="M31.7317 46.951C31.7 46.9878 31.6579 47.1406 31.6368 47.2881C31.6105 47.5041 31.6368 47.6885 31.7949 48.2786C31.9213 48.7527 32.0003 49.2058 32.032 49.6167C32.0583 49.9539 32.1215 50.5861 32.1689 51.0234C32.269 51.9242 32.248 53.1043 32.1162 54.1053C31.9529 55.3223 31.816 56.8237 31.8476 57.0608C31.9424 57.7615 32.5588 57.9986 32.9697 57.4981C33.1594 57.2663 33.2173 57.0766 33.3174 56.318C33.5018 54.943 33.5703 54.0526 33.6072 52.5512C33.6493 50.9759 33.6493 50.9707 33.839 50.2068C33.9391 49.7853 34.0971 49.2216 34.1867 48.9476C34.4185 48.2417 34.4448 47.8729 34.2868 47.5726C34.1761 47.3514 34.1498 47.3356 33.9707 47.3408C33.7863 47.3461 33.6809 47.404 33.2595 47.7096C33.0909 47.8308 32.975 47.7676 32.701 47.4146C32.4429 47.0879 32.2796 46.972 31.974 46.9141C31.8476 46.893 31.7685 46.9036 31.7317 46.951ZM32.2427 47.3724C32.4534 47.6885 32.6694 48.2944 32.8485 49.0319C33.0119 49.7326 33.133 49.5956 33.6282 48.1521C33.8337 47.5463 33.86 47.4936 33.9812 47.4936C34.1024 47.4936 34.1129 47.5147 34.1024 47.7043C34.0971 47.8202 33.9391 48.3787 33.7494 48.9424C33.5598 49.5061 33.3701 50.133 33.3227 50.3332C33.2805 50.5334 33.2173 50.7283 33.191 50.7599C33.1646 50.7916 33.133 51.5291 33.1225 52.3931C33.1067 53.7365 33.0751 54.1949 32.9328 55.4435C32.838 56.2548 32.7379 57.0608 32.701 57.2294C32.6325 57.5824 32.5166 57.7036 32.3744 57.5824C32.2796 57.5034 32.2796 57.4981 32.4007 56.4234C32.7116 53.647 32.7326 53.4099 32.7379 52.3404C32.7379 51.2288 32.6378 50.133 32.4218 48.9476C32.327 48.4314 32.1057 47.7886 31.9055 47.4778C31.7475 47.2302 31.7422 47.1986 31.8318 47.109C31.9477 46.9931 32.032 47.0458 32.2427 47.3724Z" fill="#9A1D51"/>
<defs>
<radialGradient id="paint0_radial_2001_2319" cx="0" cy="0" r="1" gradientUnits="userSpaceOnUse" gradientTransform="translate(32.681 31.6617) rotate(-90) scale(29.1827 16.9994)">
<stop stop-color="#F27D8D"/>
<stop offset="1" stop="#9A1D51"/>
</radialGradient>
</defs>
</svg>
